<svg width="390" height="280" xmlns="http://www.w3.org/2000/svg">
 <clipPath id="clp1">
  <path id="svg_1" d="m0,0l1440,0l0,2160l-1440,0l0,-2160z" stroke="#000000"/>
 </clipPath>

 <g>
  <title>background</title>
  <rect fill="none" id="canvas_background" height="282" width="392" y="-1" x="-1"/>
 </g>
 <g>
  <title>Layer 1</title>
  <g stroke="null" id="svg_2" fill="none" clip-path="url(#clp1)">
   <g stroke="null" id="svg_3" transform="matrix(0.31991147994995117,0,0,0.31991147994995117,215.21981980264053,772.060939020265) ">
    <path stroke="#000000" id="svg_4" d="m76.407714,-1977.917217c0,0 15.909,55.286 25.693,0s28.973,0 28.973,0" stroke-width="4"/>
   </g>
   <g stroke="null" id="svg_5" transform="matrix(0.31991147994995117,0,0,0.31991147994995117,216.29411454346047,772.3018963469633) ">
    <path stroke="#000000" id="svg_6" d="m-48.925286,-1977.917217c0,0 14.203,144 31.101,0s39.565,0 39.565,0" stroke-width="4"/>
   </g>
   <g stroke="null" id="svg_7" transform="matrix(0.31991147994995117,0,0,0.31991147994995117,215.42206784026487,772.0872997262129) ">
    <path stroke="#000000" id="svg_8" d="m24.408714,-1977.917217c0,0 19.92,103.846 24.127,0c4.207,-103.846 27.207,0 27.207,0" stroke-width="4"/>
   </g>
   <g stroke="null" id="svg_9" transform="matrix(0.31991147994995117,0,0,0.31991147994995117,430.86383073842387,772.022805571855) ">
    <path stroke="#000000" id="svg_10" d="m-543.058286,-1977.917217c0,0 13.47,53.182 23.59,0s30.01,0 30.01,0s17.514,31.909 27.448,0s30.952,0 30.952,0" stroke-width="4"/>
   </g>
   <g stroke="null" id="svg_11" transform="matrix(0.31991147994995117,0,0,0.31991147994995117,430.79517773482667,771.8660809378275) ">
    <path stroke="#000000" id="svg_12" d="m-431.007286,-1977.917217c0,0 13.5,14.5 21.5,0s23,0 23,0" stroke-width="4"/>
   </g>
   <g stroke="null" id="svg_13" transform="matrix(0.31991147994995117,0,0,0.31991147994995117,430.65524845349654,771.74812957517) ">
    <path stroke="#000000" id="svg_14" d="m-386.757286,-1977.917217c0,0 16.5,10.75 25.5,0s24.5,0 24.5,0s15.5,5 22.25,0c6.75,-5 23,0 23,0" stroke-width="4"/>
   </g>
   <g stroke="null" id="svg_15" transform="matrix(0.31991147994995117,0,0,0.31991147994995117,434.7144452668415,771.319672130073) ">
    <path stroke="#000000" id="svg_16" d="m-304.437286,-1976.649217c0,0 21.248,3 26.499,-0.5s26.501,-0.5 26.501,-0.5l25.847,-0.268l71.5,0" stroke-width="4"/>
   </g>
   <g stroke="null" id="svg_17" transform="matrix(0.31991147994995117,0,0,0.31991147994995117,215.4143259824501,772.7236036598333) ">
    <path stroke="#000000" id="svg_18" d="m-472.257286,-1977.917217c0,0 19.672,976.091 20.711,0c1.039,-976.091 20.712,0 20.712,0" stroke-width="4"/>
   </g>
   <g stroke="null" id="svg_19" transform="matrix(0.31991147994995117,0,0,0.31991147994995117,215.65429158356056,772.6218078269133) ">
    <path stroke="#000000" id="svg_20" d="m-431.592286,-1977.917217c0,0 13.995,810 35.093,0s39.573,0 39.573,0s27.219,529.714 25.693,0s28.973,0 28.973,0" stroke-width="4"/>
   </g>
   <g stroke="null" id="svg_21" transform="matrix(0.31991147994995117,0,0,0.31991147994995117,216.0808935420738,772.4036921798834) ">
    <path stroke="#000000" id="svg_22" d="m-303.592286,-1977.917217c0,0 21.397,421.714 30.08,0c8.138,-395.255 30.818,-49.598 33.632,-4.668c0.188,3.008 0.288,4.668 0.288,4.668s10.584,306 23.531,0c12.947,-306 33.803,0 33.803,0s15.477,234 29.453,0c13.976,-234 33.213,0 33.213,0s23.425,186.429 37.451,0c14.026,-186.429 33.215,0 33.215,0" stroke-width="4"/>
   </g>
   <g stroke="null" id="svg_23" transform="matrix(0.31991147994995117,0,0,0.31991147994995117,339.3272070777164,772.7236036598333) ">
    <path stroke="#000000" id="svg_24" d="m-1039.592286,-1977.917217c0,0 4.665,630 88,0s92,0 92,0" stroke-width="4"/>
   </g>
  </g>
 </g>
</svg>